# xmcd
#
# Track frame offsets: 
#        150
#        21454
#        37781
#        55550
#        76297
#        89968
#        100569
#        119165
#        136664
#        152441
#        169096
#        188399
#
# Disc length: 2783 seconds
#
# Revision: 0
# Processed by: cddbd v1.5.2PL0 Copyright (c) Steve Scherf et al.
# Submitted via: ExactAudioCopy v1.3
#
DISCID=8a0add0c
DTITLE=Black Cat Bones - Tattered And Torn
DYEAR=2019
DGENRE=Blues Rock
TTITLE0=Manslaughter
TTITLE1=When I Get That Feeling
TTITLE2=Dead Broke Blues
TTITLE3=The Race
TTITLE4=Led to Believe
TTITLE5=Lowdown
TTITLE6=Lone Lobo
TTITLE7=Pay You Back with Interest
TTITLE8=Just Around the Corner
TTITLE9=Laying in Wait
TTITLE10=Not so Funny
TTITLE11=I Don't Care
EXTD=
EXTT0=
EXTT1=
EXTT2=
EXTT3=
EXTT4=
EXTT5=
EXTT6=
EXTT7=
EXTT8=
EXTT9=
EXTT10=
EXTT11=
PLAYORDER=
